inDegrees=no
num_controls=7
num_derivatives=13
num_iterations=114
num_multipliers=7
num_parameters=0
num_slacks=7
num_states=26
objective=0.545143
objective_accelerations=0.042116
objective_balance=0.003902
objective_effort=0.041108
objective_height=0.448568
objective_ligament=0.009449
solver_duration=1275.751391
status=Solve_Succeeded
success=true
DataType=double
version=3
OpenSimVersion=4.5
endheader
time	/jointset/ground_pelvis/pelvis_tilt/value	/jointset/ground_pelvis/pelvis_tx/value	/jointset/ground_pelvis/pelvis_ty/value	/jointset/hip_r/hip_flexion_r/value	/jointset/hip_r/hip_adduction_r/value	/jointset/hip_r/hip_rotation_r/value	/jointset/back/lumbar_extension/value	/jointset/patellofemoral_r/patellar_flexion_r/value	/jointset/knee_r/knee_flexion_r/value	/jointset/knee_r/knee_adduction_r/value	/jointset/knee_r/knee_rotation_r/value	/jointset/ankle_r/ankle_angle_r/value	/jointset/subtalar_r/subtalar_angle_r/value	/jointset/ground_pelvis/pelvis_tilt/speed	/jointset/ground_pelvis/pelvis_tx/speed	/jointset/ground_pelvis/pelvis_ty/speed	/jointset/hip_r/hip_flexion_r/speed	/jointset/hip_r/hip_adduction_r/speed	/jointset/hip_r/hip_rotation_r/speed	/jointset/back/lumbar_extension/speed	/jointset/patellofemoral_r/patellar_flexion_r/speed	/jointset/knee_r/knee_flexion_r/speed	/jointset/knee_r/knee_adduction_r/speed	/jointset/knee_r/knee_rotation_r/speed	/jointset/ankle_r/ankle_angle_r/speed	/jointset/subtalar_r/subtalar_angle_r/speed	/forceset/tau_hip_flexion_r	/forceset/tau_hip_adduction_r	/forceset/tau_hip_rotation_r	/forceset/tau_knee_flexion_r	/forceset/tau_ankle_angle_r	/forceset/tau_subtalar_angle_r	/forceset/tau_lumbar_extension	lambda_cid13_p0	lambda_cid14_p0	lambda_cid14_p1	lambda_cid14_p2	lambda_cid14_p3	lambda_cid14_p4	lambda_cid14_p5	/jointset/ground_pelvis/pelvis_tilt/accel	/jointset/ground_pelvis/pelvis_tx/accel	/jointset/ground_pelvis/pelvis_ty/accel	/jointset/hip_r/hip_flexion_r/accel	/jointset/hip_r/hip_adduction_r/accel	/jointset/hip_r/hip_rotation_r/accel	/jointset/back/lumbar_extension/accel	/jointset/patellofemoral_r/patellar_flexion_r/accel	/jointset/knee_r/knee_flexion_r/accel	/jointset/knee_r/knee_adduction_r/accel	/jointset/knee_r/knee_rotation_r/accel	/jointset/ankle_r/ankle_angle_r/accel	/jointset/subtalar_r/subtalar_angle_r/accel	gamma_cid13_p0	gamma_cid14_p0	gamma_cid14_p1	gamma_cid14_p2	gamma_cid14_p3	gamma_cid14_p4	gamma_cid14_p5
1	-0.4084125427295741	-0.04944724311089406	0.7001546591839901	1.483322862987435	-0.2306917141992146	-0.06213408908279272	-0.4362769172641465	1.164864805017216	1.16486480501693	-0.02854358090537822	0.1745109475163996	0.2777013043230829	0.05875049524774372	-0.001650843528536843	0.00263380488361086	0.0127508600704166	-0.03412746385373625	0.001410349164635495	-0.009473903701260399	-0.0008825191493446505	-0.0438474686584866	-0.04384746865849271	0.0006242833295440247	-7.552653968398746e-05	-0.009291913167525111	-0.000659945064054435	-0.3443287813183842	0.008144521417029925	0.01211119629740577	-0.3896957693754193	0.05822864487775818	0.00252584382052773	0.3330672994030629	-2.82673347816267	-29.77028596178423	-3.07918006726388	-0.2329527083989505	14.20158887283477	-783.5306012115783	55.40903569553489	1.729231745851851	0.2001656395341291	1.431401959657237	-5.203769033318345	0.06831984605091544	-0.715892047191964	-0.06209396631278054	-4.232562584729864	-4.232562584729924	0.3489610453720617	0.005226662939719363	-0.906238998066472	-0.1626547211849715	4.770680937591556e-10	-2.596289583504981e-10	7.136672557192188e-09	5.752141385879062e-09	1.780919574132187e-09	-3.020157227557769e-09	5.453810702416442e-09
1.01	-0.408343369013761	-0.04941087818463553	0.7003535920254991	1.482722341294563	-0.2306741215388997	-0.0622640538090749	-0.4362876949390657	1.164214876807871	1.164214876807742	-0.0285195443943934	0.1745100710390325	0.2775630962102001	0.05873585949907135	0.01547928458632562	0.004645333577309839	0.02703395664913394	-0.08597605050334003	0.002107397519222683	-0.01651670971593316	-0.001238364593905879	-0.08614084561724808	-0.08614084561727736	0.004188449173868047	-9.866268589204783e-05	-0.01834726339623795	-0.002267523671793575	-0.3444279082430649	0.008191569564163535	0.01211833462578022	-0.3894768955474062	0.05827421747615873	0.002501734491971514	0.3332232564034475	-2.851739998172121	-29.75365176990927	-3.085602420143607	-0.233226145578448	14.10351817850774	-783.5480914278346	55.37713669611768	1.703958434162947	0.2025697002063845	1.42649970385246	-5.175279561259398	0.07028182805637136	-0.698125600189291	-0.01713214751703492	-4.22812624908594	-4.228126249089382	0.3609608797535766	-0.005915466413002893	-0.9048166607287828	-0.1598538367460694	6.815096358803849e-10	2.621169335812708e-10	1.375682569775099e-08	1.048581339813614e-08	1.177876896120127e-09	-5.306142722299586e-09	1.009811393209398e-08
1.02	-0.4081030829988316	-0.04935421332825586	0.7006953030721704	1.481603358519084	-0.2306495814954743	-0.06246437673980362	-0.4363009915312157	1.163141934629402	1.163141934629456	-0.02845970291985473	0.1745089968576192	0.2773344078699386	0.05870513908308451	0.03257161629556296	0.006693790907839447	0.04130650110292276	-0.1378196803720557	0.002799825789577917	-0.02354554459399834	-0.001386302598030777	-0.1284502624814759	-0.1284502624815283	0.007785276049835772	-0.000115067352578208	-0.02738795864315255	-0.00387687852663864	-0.3445270351678019	0.00823861771127251	0.01212547295430482	-0.3892580217193863	0.05831979007455921	0.002477625163379354	0.3333792134037731	-2.893290801589735	-29.74571225007057	-3.090938575919688	-0.2366524336986609	14.02034908032448	-783.7011099802659	55.35925919337563	1.721672464726773	0.2075513669003195	1.429291534671555	-5.202777677140783	0.06739582920452233	-0.7130978198704726	-0.0205124782254735	-4.235770565823146	-4.235770565823193	0.3554932517007831	0.006572958844104726	-0.9033080017067214	-0.1630099706061252	1.096235839091894e-09	-2.89560873696667e-11	1.953167029825522e-08	1.524560748563979e-08	2.436301154350419e-09	-9.120555131593454e-09	1.4483524074252e-08
1.03	-0.4076919663386637	-0.04927681683647038	0.7011797342394875	1.479965680218632	-0.2306181291693679	-0.06273486751124036	-0.4363146102249239	1.161645627215043	1.161645627215227	-0.02836364193655281	0.1745077432067434	0.2770153764426622	0.05865832888148217	0.04965533933985408	0.008797983007998467	0.05558281609389088	-0.1897441471189285	0.003491331796733846	-0.03054517620838358	-0.001291128897325606	-0.1708333122267158	-0.1708333122267242	0.01144067202420827	-0.0001401511416662965	-0.0364167516718403	-0.00548369504388707	-0.3446458939970639	0.00829873211903987	0.01215022810555405	-0.3890355287633891	0.05853559255004526	0.002425266216494439	0.3336500414994902	-2.951738280429614	-29.68642055067791	-3.098990431186045	-0.2402873104888959	13.8483674923148	-783.9310006285267	55.33874328157813	1.702266538702171	0.2137252160690883	1.427261428053262	-5.191505806679565	0.07013624875697745	-0.6922816506367084	0.03147838098860121	-4.242886259410438	-4.242886259403766	0.3726291494185942	-0.007717819892708995	-0.9024297856008836	-0.1592910240858922	1.513107804151264e-09	-3.283231788602282e-10	2.529788930141196e-08	2.000566812493167e-08	3.713719973154624e-09	-1.295056373389296e-08	1.886629245021084e-08
